<svg width="34" height="35" viewBox="0 0 34 35" fill="none"
  xmlns="http://www.w3.org/2000/svg">
  <path d="M11.6875 0.840118C11.6875 9.81824 6.85312 17.8401 0 17.8401C6.85312 17.8401 11.6875 25.862 11.6875 34.8401C11.6875 25.862 16.5219 17.8401 23.375 17.8401C16.5219 17.8401 11.6875 9.81824 11.6875 0.840118Z" fill="#FF73C0"/>
  <path d="M28.1562 0.840118C28.1562 5.30262 25.7125 9.34012 22.3125 9.34012C25.7125 9.34012 28.1562 13.3776 28.1562 17.8401C28.1562 13.3776 30.6 9.34012 34 9.34012C30.6 9.34012 28.1562 5.30262 28.1562 0.840118Z" fill="#FF73C0"/>
  <path d="M25.5 17.8401C25.5 22.3026 23.0563 26.3401 19.6562 26.3401C23.0563 26.3401 25.5 30.3776 25.5 34.8401C25.5 30.3776 27.9438 26.3401 31.3438 26.3401C27.9438 26.3401 25.5 22.3026 25.5 17.8401Z" fill="#FF73C0"/>
</svg>
