<svg width="358" height="189" viewBox="0 0 358 189" fill="none" xmlns="http://www.w3.org/2000/svg">
<path fill-rule="evenodd" clip-rule="evenodd" d="M157.853 15.2409C166.603 6.84935 176.981 17.1188 175.9 23.4762C179.603 18.831 194.574 20.4228 193.423 32.7936C192.182 46.1076 166.425 46.7649 164.31 47.3757C163.657 44.9689 148.105 24.5862 157.853 15.2409ZM174.834 26.5817C175.797 21.8149 168.399 14.0948 161.713 20.3717C154.267 27.3636 165.23 41.6954 165.65 43.5007C167.229 43.0469 186.274 43.5968 187.538 33.61C188.712 24.3275 177.691 23.1105 174.834 26.5817Z" fill="#B9365E"/>
<path fill-rule="evenodd" clip-rule="evenodd" d="M193.291 7.17229C192.162 3.96097 197.414 -2.91382 203.038 1.36077C209.089 5.95022 201.688 18.804 201.347 20.0239C199.993 19.6262 185.499 21.1621 183.911 13.5746C182.488 6.75616 190.548 4.73862 193.291 7.17229ZM201.506 3.6264C197.128 0.613261 193.005 6.01078 193.874 8.39104C191.74 6.65699 185.44 8.49268 186.528 13.5844C187.741 19.2551 199.064 17.5427 200.122 17.7924C200.391 16.8569 206.215 6.86818 201.506 3.6264Z" fill="#B9365E"/>
<path d="M21.002 124.016C16.394 124.016 12.586 123.28 9.57802 121.808C6.57002 120.272 4.33002 118.32 2.85802 115.952C1.38602 113.584 0.650024 111.056 0.650024 108.368C0.650024 106.064 1.16202 103.952 2.18602 102.032C3.21002 100.112 4.65002 98.5441 6.50602 97.3281C8.36202 96.1121 10.538 95.5041 13.034 95.5041C14.954 95.5041 16.682 95.8881 18.218 96.6561C19.818 97.3601 21.066 98.3521 21.962 99.6321C22.858 100.848 23.306 102.288 23.306 103.952C23.306 104.272 23.274 104.624 23.21 105.008C23.146 105.392 23.082 105.776 23.018 106.16C22.57 105.968 22.122 105.84 21.674 105.776C21.226 105.648 20.778 105.584 20.33 105.584C18.858 105.584 17.674 106.128 16.778 107.216C15.946 108.24 15.53 109.52 15.53 111.056C15.53 112.784 16.17 114.288 17.45 115.568C18.794 116.848 20.746 117.488 23.306 117.488C24.842 117.488 26.314 117.168 27.722 116.528C29.13 115.888 30.282 114.896 31.178 113.552C32.074 112.144 32.522 110.32 32.522 108.08C32.522 105.712 31.882 103.632 30.602 101.84C29.386 100.048 27.85 98.4161 25.994 96.9441C24.138 95.4081 22.186 93.8721 20.138 92.3361C18.346 90.9281 16.65 89.4561 15.05 87.9201C13.45 86.3201 12.138 84.5281 11.114 82.5441C10.09 80.5601 9.57802 78.2881 9.57802 75.7281C9.57802 72.6561 10.314 69.9361 11.786 67.5681C13.322 65.2001 15.338 63.2161 17.834 61.6161C20.394 60.0161 23.242 58.8001 26.378 57.9681C29.578 57.1361 32.778 56.7201 35.978 56.7201C39.498 56.7201 42.666 57.1041 45.482 57.8721C48.362 58.5761 50.634 59.7281 52.298 61.3281C54.026 62.9281 54.89 65.0401 54.89 67.6641C54.89 69.9041 54.378 71.7921 53.354 73.3281C52.33 74.8641 50.986 76.0161 49.322 76.7841C47.658 77.5521 45.898 77.9361 44.042 77.9361C43.018 77.9361 42.026 77.8401 41.066 77.6481C40.17 77.4561 39.338 77.1361 38.57 76.6881C39.146 75.6641 39.626 74.5761 40.01 73.4241C40.394 72.2081 40.586 71.0241 40.586 69.8721C40.586 67.7601 40.106 66.0641 39.146 64.7841C38.186 63.4401 36.426 62.7681 33.866 62.7681C31.882 62.7681 30.186 63.4401 28.778 64.7841C27.37 66.0641 26.666 67.8561 26.666 70.1601C26.666 72.0801 27.21 73.8081 28.298 75.3441C29.45 76.8161 30.922 78.2241 32.714 79.5681C34.506 80.8481 36.394 82.1921 38.378 83.6001C40.298 84.9441 42.122 86.4481 43.85 88.1121C45.578 89.7761 46.986 91.7281 48.074 93.9681C49.226 96.1441 49.802 98.7361 49.802 101.744C49.802 105.392 48.938 108.624 47.21 111.44C45.482 114.192 43.21 116.528 40.394 118.448C37.578 120.304 34.474 121.68 31.082 122.576C27.69 123.536 24.33 124.016 21.002 124.016Z" fill="#B9365E"/>
<path d="M64.7323 123.92C61.8523 123.92 59.3563 123.44 57.2443 122.48C55.1323 121.52 53.5003 120.08 52.3483 118.16C51.1963 116.176 50.6203 113.712 50.6203 110.768C50.6203 109.168 50.8443 106.896 51.2923 103.952C51.7403 101.008 52.4123 97.0401 53.3083 92.0481C54.2043 87.0561 55.3883 80.7201 56.8603 73.0401L73.8523 71.3121C72.5723 78.1601 71.4523 83.9201 70.4923 88.5921C69.5963 93.2001 68.8603 97.0081 68.2843 100.016C67.7723 102.96 67.3883 105.392 67.1323 107.312C66.8763 109.168 66.7483 110.736 66.7483 112.016C66.7483 112.976 66.8443 113.904 67.0363 114.8C67.2283 115.696 67.6123 116.432 68.1883 117.008C68.8283 117.584 69.7243 117.872 70.8763 117.872C72.7323 117.872 74.2683 117.2 75.4843 115.856C76.7003 114.512 77.6603 112.848 78.3643 110.864C79.1323 108.816 79.6763 106.864 79.9963 105.008L85.7563 73.0401L102.844 71.3121L95.7403 108.752C95.6763 109.328 95.5803 110 95.4523 110.768C95.3243 111.536 95.2603 112.208 95.2603 112.784C95.2603 113.936 95.5803 114.992 96.2203 115.952C96.8603 116.848 97.8843 117.328 99.2923 117.392C98.9083 118.928 98.1083 120.176 96.8923 121.136C95.7403 122.096 94.3963 122.8 92.8603 123.248C91.3883 123.696 89.9163 123.92 88.4443 123.92C86.3963 123.92 84.5403 123.472 82.8763 122.576C81.2123 121.68 80.1243 120.304 79.6123 118.448C78.0123 120.24 75.8363 121.584 73.0843 122.48C70.3963 123.44 67.6123 123.92 64.7323 123.92Z" fill="#B9365E"/>
<path d="M98.315 123.728L108.107 73.0401L122.123 71.3121L120.683 80.5281C122.091 77.5201 124.011 75.2161 126.443 73.6161C128.939 71.9521 131.851 71.1201 135.179 71.1201C138.827 71.1201 141.579 72.0801 143.435 74.0001C145.355 75.8561 146.315 78.4801 146.315 81.8721C146.315 85.7121 145.195 88.9121 142.955 91.4721C140.715 93.9681 137.803 95.2161 134.219 95.2161C133.195 95.2161 132.171 95.0881 131.147 94.8321C130.123 94.5761 129.323 94.1281 128.747 93.4881C129.835 92.1441 130.699 90.4161 131.339 88.3041C132.043 86.1281 132.395 84.2081 132.395 82.5441C132.395 81.3921 132.171 80.4321 131.723 79.6641C131.339 78.8961 130.571 78.5121 129.419 78.5121C128.331 78.5121 127.307 78.8961 126.347 79.6641C125.451 80.4321 124.651 81.5201 123.947 82.9281C123.243 84.2721 122.603 85.9041 122.027 87.8241C121.451 89.7441 120.971 91.8561 120.587 94.1601L115.979 122L98.315 123.728Z" fill="#B9365E"/>
<path d="M159.535 123.824C158.127 123.824 156.911 123.696 155.887 123.44C154.863 123.248 153.583 122.928 152.047 122.48L137.071 121.232L146.287 73.0401L160.591 71.3121L159.439 78.9921C161.039 76.7521 163.055 74.8641 165.487 73.3281C167.983 71.7921 170.895 71.0241 174.223 71.0241C177.871 71.0241 180.783 71.7921 182.959 73.3281C185.199 74.8641 186.831 77.0401 187.855 79.8561C188.879 82.6721 189.391 86.0001 189.391 89.8401C189.391 94.5121 188.719 98.8961 187.375 102.992C186.095 107.088 184.175 110.704 181.615 113.84C179.119 116.976 176.015 119.44 172.303 121.232C168.591 122.96 164.335 123.824 159.535 123.824ZM143.887 141.2C141.455 141.2 139.471 140.528 137.935 139.184C136.399 137.904 135.631 135.696 135.631 132.56C135.631 131.92 135.695 131.088 135.823 130.064C135.887 129.104 136.015 128.016 136.207 126.8C136.335 125.584 136.495 124.304 136.687 122.96C136.943 121.616 137.199 120.336 137.455 119.12L153.967 120.752C153.583 122.736 153.199 124.912 152.815 127.28C152.495 129.648 152.335 131.888 152.335 134C152.335 134.832 152.367 135.632 152.431 136.4C152.495 137.232 152.623 138 152.815 138.704C151.535 139.472 150.095 140.08 148.495 140.528C146.959 140.976 145.423 141.2 143.887 141.2ZM160.687 118.16C162.543 118.16 164.143 117.424 165.487 115.952C166.895 114.48 168.079 112.528 169.039 110.096C170.063 107.6 170.863 104.912 171.439 102.032C172.015 99.0881 172.431 96.1441 172.687 93.2001C173.007 90.1921 173.167 87.4721 173.167 85.0401C173.167 83.1201 172.879 81.4881 172.303 80.1441C171.727 78.7361 170.543 78.0321 168.751 78.0321C166.895 78.0321 165.327 78.6721 164.047 79.9521C162.831 81.2321 161.839 82.8321 161.071 84.7521C160.367 86.6721 159.855 88.5921 159.535 90.5121L154.927 116.048C155.759 116.752 156.687 117.296 157.711 117.68C158.799 118 159.791 118.16 160.687 118.16Z" fill="#B9365E"/>
<path d="M184.813 123.728L194.605 73.0401L208.621 71.3121L207.181 80.5281C208.589 77.5201 210.509 75.2161 212.941 73.6161C215.437 71.9521 218.349 71.1201 221.677 71.1201C225.325 71.1201 228.077 72.0801 229.933 74.0001C231.853 75.8561 232.813 78.4801 232.813 81.8721C232.813 85.7121 231.693 88.9121 229.453 91.4721C227.213 93.9681 224.301 95.2161 220.717 95.2161C219.693 95.2161 218.669 95.0881 217.645 94.8321C216.621 94.5761 215.821 94.1281 215.245 93.4881C216.333 92.1441 217.197 90.4161 217.837 88.3041C218.541 86.1281 218.893 84.2081 218.893 82.5441C218.893 81.3921 218.669 80.4321 218.221 79.6641C217.837 78.8961 217.069 78.5121 215.917 78.5121C214.829 78.5121 213.805 78.8961 212.845 79.6641C211.949 80.4321 211.149 81.5201 210.445 82.9281C209.741 84.2721 209.101 85.9041 208.525 87.8241C207.949 89.7441 207.469 91.8561 207.085 94.1601L202.477 122L184.813 123.728Z" fill="#B9365E"/>
<path d="M244.496 123.92C240.592 123.92 237.136 123.216 234.128 121.808C231.184 120.4 228.88 118.256 227.216 115.376C225.552 112.432 224.72 108.688 224.72 104.144C224.72 99.9841 225.296 95.9521 226.448 92.0481C227.664 88.1441 229.488 84.6241 231.92 81.4881C234.416 78.2881 237.584 75.7601 241.424 73.9041C245.264 72.0481 249.808 71.1201 255.056 71.1201C257.808 71.1201 260.336 71.4721 262.64 72.1761C265.008 72.8161 266.928 74.0001 268.4 75.7281C269.872 77.3921 270.608 79.7921 270.608 82.9281C270.608 86.1921 269.648 89.0081 267.728 91.3761C265.872 93.7441 263.12 95.6001 259.472 96.9441C255.888 98.2881 251.504 99.0881 246.32 99.3441C245.488 99.3441 244.624 99.3441 243.728 99.3441C242.896 99.3441 242.096 99.3441 241.328 99.3441C241.264 100.112 241.2 100.912 241.136 101.744C241.072 102.512 241.04 103.216 241.04 103.856C241.04 106.672 241.648 108.88 242.864 110.48C244.08 112.016 246.192 112.784 249.2 112.784C251.696 112.784 254.16 112.24 256.592 111.152C259.024 110.064 260.848 108.464 262.064 106.352C262.96 106.864 263.568 107.504 263.888 108.272C264.272 108.976 264.464 109.84 264.464 110.864C264.464 113.424 263.536 115.696 261.68 117.68C259.888 119.664 257.456 121.2 254.384 122.288C251.376 123.376 248.08 123.92 244.496 123.92ZM241.904 95.0241C244.144 95.0241 246.16 94.7041 247.952 94.0641C249.808 93.4241 251.408 92.5281 252.752 91.3761C254.096 90.1601 255.12 88.7201 255.824 87.0561C256.528 85.3921 256.88 83.5361 256.88 81.4881C256.88 79.8241 256.56 78.5441 255.92 77.6481C255.344 76.6881 254.352 76.2081 252.944 76.2081C251.728 76.2081 250.544 76.6241 249.392 77.4561C248.24 78.2881 247.184 79.5041 246.224 81.1041C245.328 82.7041 244.496 84.6881 243.728 87.0561C243.024 89.3601 242.416 92.0161 241.904 95.0241Z" fill="#B9365E"/>
<path d="M282.427 124.112C279.931 124.112 277.499 123.92 275.131 123.536C272.763 123.152 270.587 122.544 268.603 121.712C266.683 120.88 265.147 119.792 263.995 118.448C262.843 117.104 262.267 115.472 262.267 113.552C262.331 111.696 262.811 110.192 263.707 109.04C264.603 107.824 265.787 106.928 267.259 106.352C268.795 105.712 270.491 105.392 272.347 105.392C273.499 105.392 274.651 105.52 275.803 105.776C277.019 106.032 278.043 106.448 278.875 107.024C278.555 108.112 278.299 109.136 278.107 110.096C277.979 111.056 277.915 112.144 277.915 113.36C278.043 114.96 278.651 116.272 279.739 117.296C280.827 118.256 282.299 118.736 284.155 118.736C286.139 118.736 287.771 118.256 289.051 117.296C290.331 116.336 290.971 115.088 290.971 113.552C290.971 111.888 290.331 110.352 289.051 108.944C287.771 107.536 286.139 106.192 284.155 104.912C282.171 103.632 280.155 102.32 278.107 100.976C276.315 99.6961 274.619 98.3521 273.019 96.9441C271.483 95.4721 270.235 93.8721 269.275 92.1441C268.379 90.3521 267.931 88.3361 267.931 86.0961C267.995 83.6001 268.731 81.4241 270.139 79.5681C271.547 77.6481 273.403 76.0801 275.707 74.8641C278.011 73.5841 280.571 72.6561 283.387 72.0801C286.267 71.4401 289.115 71.1201 291.931 71.1201C294.747 71.1201 297.531 71.4721 300.283 72.1761C303.035 72.8161 305.275 73.9041 307.003 75.4401C308.795 76.9761 309.659 79.0241 309.595 81.5841C309.595 84.2721 308.699 86.2881 306.907 87.6321C305.179 88.9761 303.003 89.6481 300.379 89.6481C299.291 89.6481 298.139 89.5201 296.923 89.2641C295.771 89.0081 294.715 88.5921 293.755 88.0161C294.075 87.2481 294.331 86.4161 294.523 85.5201C294.715 84.5601 294.843 83.6321 294.907 82.7361C294.907 80.7521 294.395 79.1841 293.371 78.0321C292.411 76.8801 290.971 76.2721 289.051 76.2081C287.515 76.2081 286.139 76.6561 284.923 77.5521C283.771 78.4481 283.195 79.7281 283.195 81.3921C283.131 82.8641 283.611 84.2401 284.635 85.5201C285.659 86.8001 286.971 88.0481 288.571 89.2641C290.235 90.4161 291.995 91.5681 293.851 92.7201C296.027 94.0641 298.043 95.4721 299.899 96.9441C301.755 98.3521 303.227 99.9521 304.315 101.744C305.467 103.536 306.011 105.68 305.947 108.176C305.947 111.312 304.955 114.064 302.971 116.432C301.051 118.8 298.331 120.656 294.811 122C291.291 123.344 287.163 124.048 282.427 124.112Z" fill="#B9365E"/>
<path d="M320.006 123.92C316.486 123.92 313.606 123.152 311.366 121.616C309.126 120.016 307.462 117.84 306.374 115.088C305.35 112.272 304.838 108.976 304.838 105.2C304.838 100.4 305.542 95.9521 306.95 91.8561C308.422 87.6961 310.47 84.0801 313.094 81.0081C315.718 77.8721 318.758 75.4401 322.214 73.7121C325.67 71.9841 329.446 71.1201 333.542 71.1201C336.806 71.1201 340.166 71.7601 343.622 73.0401L357.35 71.3121L350.246 108.752C350.182 109.328 350.086 110 349.958 110.768C349.83 111.536 349.766 112.208 349.766 112.784C349.766 113.936 350.086 114.992 350.726 115.952C351.43 116.848 352.518 117.328 353.99 117.392C353.478 118.928 352.646 120.176 351.494 121.136C350.342 122.096 348.998 122.8 347.462 123.248C345.99 123.696 344.486 123.92 342.95 123.92C340.966 123.92 339.142 123.472 337.478 122.576C335.814 121.68 334.694 120.304 334.118 118.448C332.454 120.112 330.438 121.424 328.07 122.384C325.702 123.408 323.014 123.92 320.006 123.92ZM325.574 117.872C327.494 117.872 329.03 117.2 330.182 115.856C331.398 114.448 332.358 112.752 333.062 110.768C333.766 108.784 334.278 106.864 334.598 105.008L339.206 78.8961C338.246 78.1921 337.254 77.6801 336.23 77.3601C335.27 77.0401 334.406 76.8801 333.638 76.8801C331.782 76.8801 330.15 77.6161 328.742 79.0881C327.334 80.5601 326.118 82.5441 325.094 85.0401C324.134 87.4721 323.334 90.1601 322.694 93.1041C322.118 95.9841 321.702 98.9281 321.446 101.936C321.19 104.88 321.062 107.568 321.062 110C321.062 111.984 321.35 113.808 321.926 115.472C322.502 117.072 323.718 117.872 325.574 117.872Z" fill="#B9365E"/>
<path d="M34.986 173.104C34.986 175.568 35.602 177.845 36.834 179.936C38.1034 182.027 39.7834 183.688 41.874 184.92C44.002 186.152 46.298 186.768 48.762 186.768C51.3007 186.768 53.5967 186.264 55.65 185.256C57.7034 184.248 59.3087 182.848 60.466 181.056C61.6607 179.264 62.2767 177.248 62.314 175.008H64.33C64.33 177.584 63.6394 179.936 62.258 182.064C60.914 184.155 59.0474 185.816 56.658 187.048C54.306 188.243 51.674 188.84 48.762 188.84C45.9247 188.84 43.2927 188.131 40.866 186.712C38.4394 185.293 36.5167 183.389 35.098 181C33.6794 178.573 32.97 175.941 32.97 173.104V163.92C32.97 161.083 33.6607 158.469 35.042 156.08C36.4607 153.653 38.3647 151.731 40.754 150.312C43.1807 148.893 45.8127 148.184 48.65 148.184C51.5247 148.184 54.138 148.8 56.49 150.032C58.8794 151.227 60.7647 152.888 62.146 155.016C63.5274 157.107 64.218 159.44 64.218 162.016H62.202C62.1647 159.776 61.5487 157.76 60.354 155.968C59.1594 154.176 57.5354 152.776 55.482 151.768C53.466 150.76 51.1887 150.256 48.65 150.256C46.186 150.256 43.9087 150.872 41.818 152.104C39.7274 153.336 38.066 154.997 36.834 157.088C35.602 159.179 34.986 161.456 34.986 163.92V173.104Z" fill="#B9365E"/>
<path d="M94.3592 150.312C96.5992 151.357 98.3538 152.907 99.6232 154.96C100.93 157.013 101.583 159.291 101.583 161.792C101.583 164.704 100.687 167.317 98.8952 169.632C97.1405 171.909 94.8818 173.421 92.1192 174.168L102.031 188H99.5672L89.9911 174.56L88.1992 174.616H74.1432V188H72.0712V149.024H86.9111C88.5538 149.024 89.9538 149.136 91.1112 149.36C92.3058 149.547 93.3885 149.864 94.3592 150.312ZM88.7592 172.544C90.7005 172.544 92.4925 172.059 94.1352 171.088C95.7778 170.117 97.0845 168.811 98.0552 167.168C99.0258 165.525 99.5112 163.733 99.5112 161.792C99.5112 159.627 98.9325 157.667 97.7752 155.912C96.6552 154.157 95.0872 152.851 93.0712 151.992C91.6152 151.395 89.5618 151.096 86.9111 151.096H74.1432V172.544H88.7592Z" fill="#B9365E"/>
<path d="M136.092 149.024V151.096H124.444V185.928H136.092V188H110.836V185.928H122.428V151.096H110.836V149.024H136.092Z" fill="#B9365E"/>
<path d="M159.905 149.024H162.089L178.105 188H175.865L170.601 175.12H151.393L146.073 188H143.889L159.905 149.024ZM152.233 173.104H169.761L160.969 151.712L152.233 173.104Z" fill="#B9365E"/>
<path d="M214.239 149.024V151.096H199.511V188H197.495V151.096H182.767V149.024H214.239Z" fill="#B9365E"/>
<path d="M248.692 149.024V151.096H237.044V185.928H248.692V188H223.436V185.928H235.028V151.096H223.436V149.024H248.692Z" fill="#B9365E"/>
<path d="M258.617 149.024L273.513 185.256L288.409 149.024H290.593L274.577 188H272.393L256.377 149.024H258.617Z" fill="#B9365E"/>
<path d="M310.038 149.024H312.222L328.238 188H325.998L320.734 175.12H301.526L296.206 188H294.022L310.038 149.024ZM302.366 173.104H319.894L311.102 151.712L302.366 173.104Z" fill="#B9365E"/>
<path fill-rule="evenodd" clip-rule="evenodd" d="M157.853 15.2409C166.603 6.84935 176.981 17.1188 175.9 23.4762C179.603 18.831 194.574 20.4228 193.423 32.7936C192.182 46.1076 166.425 46.7649 164.31 47.3757C163.657 44.9689 148.105 24.5862 157.853 15.2409ZM174.834 26.5817C175.797 21.8149 168.399 14.0948 161.713 20.3717C154.267 27.3636 165.23 41.6954 165.65 43.5007C167.229 43.0469 186.274 43.5968 187.538 33.61C188.712 24.3275 177.691 23.1105 174.834 26.5817Z" fill="#B9365E"/>
<path fill-rule="evenodd" clip-rule="evenodd" d="M193.291 7.17229C192.162 3.96097 197.414 -2.91382 203.038 1.36077C209.089 5.95022 201.688 18.804 201.347 20.0239C199.993 19.6262 185.499 21.1621 183.911 13.5746C182.488 6.75616 190.548 4.73862 193.291 7.17229ZM201.506 3.6264C197.128 0.613261 193.005 6.01078 193.874 8.39104C191.74 6.65699 185.44 8.49268 186.528 13.5844C187.741 19.2551 199.064 17.5427 200.122 17.7924C200.391 16.8569 206.215 6.86818 201.506 3.6264Z" fill="#B9365E"/>
</svg>
